<?xml version="1.0" encoding="UTF-8"?>
<svg width="48px" height="48px" viewBox="0 0 48 48" version="1.1" xmlns="http://www.w3.org/2000/svg" xmlns:xlink="http://www.w3.org/1999/xlink">
    <!-- Generator: Sketch 54.1 (76490) - https://sketchapp.com -->
    <title>Group</title>
    <desc>Created with Sketch.</desc>
    <g id="Page-2" stroke="none" stroke-width="1" fill="none" fill-rule="evenodd">
        <g id="Login-page-Copy" transform="translate(-1345.000000, -350.000000)">
            <g id="Group-5" transform="translate(1245.000000, 193.000000)">
                <g id="Group" transform="translate(100.000000, 157.000000)">
                    <circle id="Oval" fill="#507CC0" cx="24" cy="24" r="24"></circle>
                    <g id="icons8-facebook-f-filled" transform="translate(17.000000, 11.000000)" fill="#FFFFFF" fill-rule="nonzero">
                        <path d="M11.1998864,5.08695652 L13.999858,5.08695652 C14.3089748,5.08695652 14.5598523,4.83373913 14.5598523,4.52173913 L14.5598523,0.713869565 C14.5598523,0.417695652 14.3341746,0.17126087 14.0418576,0.150347826 C13.1509066,0.0864782609 11.4104442,0 10.1588569,0 C6.71993183,0 4.47995455,2.08 4.47995455,5.86017391 L4.47995455,9.60869565 L0.559994319,9.60869565 C0.250877455,9.60869565 0,9.86191304 0,10.173913 L0,14.1304348 C0,14.4424348 0.250877455,14.6956522 0.559994319,14.6956522 L4.47995455,14.6956522 L4.47995455,25.4347826 C4.47995455,25.7467826 4.73083201,26 5.03994887,26 L8.95990911,26 C9.26902597,26 9.51990342,25.7467826 9.51990342,25.4347826 L9.51990342,14.6956522 L13.5641824,14.6956522 C13.8497795,14.6956522 14.0894571,14.4791739 14.1208168,14.1926087 L14.5564923,10.236087 C14.593452,9.90147826 14.3336146,9.60869565 13.999858,9.60869565 L9.51990342,9.60869565 L9.51990342,6.7826087 C9.51990342,5.84604348 10.2719758,5.08695652 11.1998864,5.08695652 Z" id="Path"></path>
                    </g>
                </g>
            </g>
        </g>
    </g>
</svg>