<?xml version="1.0" encoding="UTF-8"?>
<svg width="48px" height="47px" viewBox="0 0 48 47" version="1.1" xmlns="http://www.w3.org/2000/svg" xmlns:xlink="http://www.w3.org/1999/xlink">
    <!-- Generator: Sketch 54.1 (76490) - https://sketchapp.com -->
    <title>Group 2</title>
    <desc>Created with Sketch.</desc>
    <g id="Page-2" stroke="none" stroke-width="1" fill="none" fill-rule="evenodd">
        <g id="Login-page-Copy" transform="translate(-1507.000000, -350.000000)" fill="#000000" fill-rule="nonzero">
            <g id="Group-5" transform="translate(1245.000000, 193.000000)">
                <g id="Group-2" transform="translate(260.000000, 157.000000)">
                    <g id="icons8-github" transform="translate(2.000000, 0.000000)">
                        <path d="M24,0 C10.742188,0 0,10.742188 0,24 C0,34.601562 6.875,43.601562 16.414062,46.773438 C17.617188,46.992188 18.054688,46.257812 18.054688,45.617188 C18.054688,45.046876 18.03125,43.539062 18.023438,41.539062 C11.34375,42.984376 9.9375,38.320312 9.9375,38.320312 C8.84375,35.546876 7.273438,34.804688 7.273438,34.804688 C5.09375,33.320312 7.4375,33.351562 7.4375,33.351562 C9.84375,33.523438 11.109376,35.820312 11.109376,35.820312 C13.25,39.492188 16.726562,38.429688 18.09375,37.820312 C18.3125,36.265626 18.9375,35.210938 19.617188,34.609376 C14.289062,34.007812 8.6875,31.945312 8.6875,22.75 C8.6875,20.125 9.625,17.984376 11.15625,16.304688 C10.914062,15.703126 10.085938,13.257812 11.390626,9.953126 C11.390626,9.953126 13.40625,9.3125 17.992188,12.414062 C19.90625,11.882812 21.960938,11.617188 24,11.609376 C26.039062,11.617188 28.09375,11.882812 30.007812,12.414062 C34.59375,9.3125 36.601562,9.953126 36.601562,9.953126 C37.914062,13.257812 37.09375,15.703126 36.84375,16.304688 C38.382812,17.984376 39.304688,20.125 39.304688,22.75 C39.304688,31.96875 33.695312,33.992188 28.351562,34.59375 C29.210938,35.328126 29.976562,36.796876 29.976562,39.03125 C29.976562,42.242188 29.953126,44.828126 29.953126,45.617188 C29.953126,46.257812 30.382812,47.007812 31.601562,46.773438 C41.132812,43.59375 48,34.601562 48,24 C48,10.742188 37.257812,0 24,0 Z" id="Path"></path>
                    </g>
                </g>
            </g>
        </g>
    </g>
</svg>