<?xml version="1.0" encoding="UTF-8"?>
<svg width="56px" height="56px" viewBox="0 0 56 56" version="1.1" xmlns="http://www.w3.org/2000/svg" xmlns:xlink="http://www.w3.org/1999/xlink">
    <!-- Generator: Sketch 54.1 (76490) - https://sketchapp.com -->
    <title>Shape</title>
    <desc>Created with Sketch.</desc>
    <g id="Page-2" stroke="none" stroke-width="1" fill="none" fill-rule="evenodd">
        <g id="Login-page-Copy" transform="translate(-1421.000000, -193.000000)" fill="#000000" fill-rule="nonzero">
            <g id="Group-5" transform="translate(1245.000000, 193.000000)">
                <path d="M204.002206,0 C192.677265,-0.000726796357 182.467047,6.82069365 178.132676,17.2833661 C173.798305,27.7460385 176.193388,39.7894564 184.201073,47.7976558 C192.208759,55.8058552 204.252023,58.2017107 214.714974,53.8680114 C225.177924,49.534312 232,39.3245315 232,27.9995907 C232,12.5365455 219.465251,0.000992365886 204.002206,0 M217.770199,40.1216058 C217.322167,40.1216058 216.874135,40.0994438 216.426104,40.0551198 C215.978072,40.0107958 215.498893,39.9431118 214.988568,39.852068 L213.710959,35.1800787 L212.568119,30.7758305 L210.411816,22.1056966 L205.588885,39.1764264 C204.266353,39.6687822 203.445161,40.0155876 202.048955,40.2330148 C200.953519,40.3980886 199.846802,40.4767965 198.73903,40.4684111 C196.767211,40.4684111 195.042169,40.160539 193.563904,39.5447948 C192.145982,38.9753917 190.873278,38.0962251 189.838891,36.9716069 C188.820295,35.836925 188.058445,34.4958738 187.605321,33.0399483 C187.09856,31.4312294 186.848713,29.7526467 186.86499,28.0660767 C186.849642,26.3717901 187.110624,24.6863341 187.637665,23.0760329 C188.112183,21.6134271 188.87195,20.259404 189.873032,19.0922636 C190.865552,17.9590291 192.099842,17.0630944 193.484839,16.4705589 C195.026438,15.8223334 196.685966,15.501687 198.358084,15.5289734 C199.387539,15.5260173 200.415606,15.6047296 201.432612,15.7643697 C202.537848,15.9612667 203.615771,16.2888055 204.643706,16.7400967 C204.599879,17.6574701 204.429973,18.5644433 204.138772,19.4354751 C203.896794,20.1966274 203.596415,20.9379627 203.240312,21.6528731 C202.792281,21.4959421 202.383182,21.3617722 202.013017,21.2503632 C201.642851,21.1389543 201.290056,21.0491083 200.954632,20.9808254 C200.618009,20.9137404 200.281985,20.8628277 199.94656,20.8280873 C199.611135,20.7933468 199.251751,20.7765756 198.868409,20.7777735 C197.053521,20.7777735 195.653122,21.388127 194.667212,22.6088339 C193.681303,23.8295409 193.188348,25.6504187 193.188348,28.0714675 C193.188348,30.4673594 193.667526,32.2540958 194.625883,33.4316766 C195.58424,34.6092575 197.018181,35.197449 198.927707,35.196251 C199.311022,35.2000214 199.693789,35.1663187 200.070547,35.0956236 L200.122658,35.0812482 C200.598842,34.9770269 200.981585,34.887181 201.380501,34.7739751 L202.526936,31.162168 L198.358084,31.162168 C198.287405,30.6829896 198.234096,30.254724 198.198158,29.877371 C198.162219,29.500018 198.14425,29.1526137 198.14425,28.835158 C198.14425,28.5320777 198.162219,28.1667042 198.198158,27.7390375 C198.234096,27.3113708 198.287405,26.8920897 198.358084,26.4811942 L207.939255,26.4811942 C207.939255,26.4811942 207.069547,26.3158777 206.052491,26.1469673 C205.035434,25.9780569 204.226821,25.8594603 204.226821,25.8594603 L207.407367,15.7967143 C207.989569,15.7308273 208.532838,15.6751228 209.037173,15.6296008 C209.542107,15.5846779 210.050635,15.5613179 210.566351,15.5613179 C210.991622,15.5613179 211.456425,15.5840789 211.96076,15.6296008 C212.465095,15.6751228 213.041906,15.7308273 213.691193,15.7967143 L221.119656,39.8269111 C220.008378,40.0136133 218.884383,40.1145386 217.757621,40.1287935" id="Shape"></path>
            </g>
        </g>
    </g>
</svg>