<?xml version="1.0" encoding="UTF-8"?>
<svg width="625px" height="637px" viewBox="0 0 625 637" version="1.1" xmlns="http://www.w3.org/2000/svg" xmlns:xlink="http://www.w3.org/1999/xlink">
    <!-- Generator: Sketch 54.1 (76490) - https://sketchapp.com -->
    <title>Group 7</title>
    <desc>Created with Sketch.</desc>
    <defs>
        <linearGradient x1="59.9724212%" y1="3.88053895%" x2="16.3579684%" y2="83.4155043%" id="linearGradient-1">
            <stop stop-color="#BE00FF" offset="0%"></stop>
            <stop stop-color="#501CFF" offset="28.4272998%"></stop>
            <stop stop-color="#1F20FF" stop-opacity="0.888794799" offset="48.9439697%"></stop>
            <stop stop-color="#0052E2" stop-opacity="0.881747159" offset="70.1485357%"></stop>
            <stop stop-color="#01FFA3" offset="100%"></stop>
        </linearGradient>
    </defs>
    <g id="Page-2" stroke="none" stroke-width="1" fill="none" fill-rule="evenodd">
        <g id="Login-page-Copy" transform="translate(-413.000000, -235.000000)">
            <g id="Group-7" transform="translate(307.000000, 112.000000)">
                <path d="M708.273825,514.168186 C702.659826,520.185628 681.416746,542.852325 644.544586,582.168277 L626.432831,502.796389 L581.710295,325.511874 L481.680888,674.569469 C454.251066,684.637024 437.219233,691.728405 408.261391,696.174297 C385.541638,699.549681 362.587906,701.159079 339.612297,700.987617 C298.716022,700.987617 266.385205,682.634481 235.725421,670.043912 C207.302308,655.72796 182.140003,646.006849 155.020028,629.485924 C133.89396,606.28426 110.389868,562.698807 108.694934,549.092449 C107,535.486091 107,535.486091 107,532.013389 C112.805041,498.306994 136.839028,287.737408 136.839028,287.737408 C136.839028,287.737408 134.96531,287.759389 155.728135,263.894022 C176.313374,240.721955 201.913013,222.402128 230.638383,210.286124 C262.611714,197.031388 297.030967,190.474899 331.711316,191.032842 C353.062602,190.972397 374.385108,192.581886 395.478199,195.846163 C418.401215,199.872257 440.757736,206.569681 462.07751,215.79756 C461.168529,234.555758 457.644607,253.101298 451.604982,270.911917 C446.586272,286.47575 440.356298,301.634371 432.970592,316.252662 C423.678243,313.043781 415.193384,310.300311 407.516015,308.022251 C399.838646,305.744191 392.521542,303.907046 385.564703,302.510815 C378.583019,301.13908 371.613757,300.098031 364.656918,299.387668 C357.700079,298.677306 350.246323,298.334372 342.295649,298.358867 C304.654181,298.358867 275.609378,310.839207 255.161241,335.799887 C234.713103,360.760567 224.489035,397.993377 224.489035,447.498317 C224.489035,496.488857 234.427376,533.023552 254.304059,557.102402 C274.180742,581.181252 303.921229,593.20843 343.525519,593.183935 C351.475626,593.261031 359.414345,592.571888 367.228463,591.126332 L368.309258,590.832389 C378.185485,588.7013 386.123735,586.864155 394.397404,584.549352 L418.174886,510.696113 L331.711316,510.696113 C330.24541,500.898006 329.13977,492.140947 328.394394,484.424937 C327.649019,476.708927 327.276331,469.605298 327.276331,463.114052 C327.276331,456.916749 327.649019,449.445691 328.394394,440.70088 C329.13977,431.956069 330.24541,423.382724 331.711316,414.980847 L530.428453,414.980847 C530.428453,414.980847 512.390363,411.600499 491.296233,408.146666 C470.202104,404.692833 453.431152,402.267802 453.431152,402.267802 L519.396894,196.507535 C531.471979,195.160295 571.03937,191.694215 574.056256,191.694215 C576.067512,191.694215 624.729605,278.862591 720.042534,453.199345 C724.803168,475.391387 720.880266,495.714334 708.273825,514.168186 Z" id="Path" fill="#7A26C4" opacity="0.0442453899"></path>
                <path d="M476.645439,122.853326 L687.41233,280.912688 C721.453753,306.441203 735.612659,350.715412 722.701261,391.259454 L638.613284,655.310358 C625.458277,696.619375 587.184065,724.746989 543.83154,724.965206 L283.959965,726.273278 C239.928015,726.494914 200.932614,697.88914 187.921793,655.822761 L106.927867,393.954487 C94.4753991,353.693364 108.600246,309.946533 142.245798,284.569401 L356.432383,123.019337 C391.994284,96.1968019 441.009592,96.1291129 476.645439,122.853326 Z" id="Polygon" fill="url(#linearGradient-1)" style="mix-blend-mode: color-burn;" opacity="0.520717076" transform="translate(414.939564, 414.565381) rotate(25.000000) translate(-414.939564, -414.565381) "></path>
            </g>
        </g>
    </g>
</svg>