<?xml version="1.0" encoding="UTF-8"?>
<svg width="878px" height="885px" viewBox="0 0 878 885" version="1.1" xmlns="http://www.w3.org/2000/svg" xmlns:xlink="http://www.w3.org/1999/xlink">
    <!-- Generator: Sketch 54.1 (76490) - https://sketchapp.com -->
    <title>Group 7</title>
    <desc>Created with Sketch.</desc>
    <defs>
        <linearGradient x1="59.9724212%" y1="3.651336%" x2="16.3579684%" y2="83.5815715%" id="linearGradient-1">
            <stop stop-color="#BE00FF" offset="0%"></stop>
            <stop stop-color="#501CFF" offset="28.4272998%"></stop>
            <stop stop-color="#1F20FF" stop-opacity="0.888794799" offset="48.9439697%"></stop>
            <stop stop-color="#0052E2" stop-opacity="0.881747159" offset="70.1485357%"></stop>
            <stop stop-color="#01FFA3" offset="100%"></stop>
        </linearGradient>
    </defs>
    <g id="Page-1" stroke="none" stroke-width="1" fill="none" fill-rule="evenodd">
        <g id="Login-page" transform="translate(-247.000000, -193.000000)">
            <g id="Group-7" transform="translate(18.858060, -24.141940)">
                <path d="M1085.71421,749.14194 C1077.76499,757.76694 1047.68556,790.255873 995.475925,846.608737 L969.830339,732.842365 L906.504856,478.73456 L764.86686,979.050446 C726.027231,993.480609 701.910776,1003.64492 660.907526,1010.01737 C628.737184,1014.85542 596.235535,1017.16222 563.70291,1016.91646 C505.795274,1016.91646 460.016014,990.610297 416.602878,972.563815 C376.356784,952.044284 340.727878,938.11069 302.326981,914.430699 C272.413237,881.174981 239.1323,818.702497 236.732335,799.200051 C234.33237,779.697604 234.33237,779.697604 234.33237,774.720065 C242.552097,726.407565 276.583347,424.591159 276.583347,424.591159 C276.583347,424.591159 273.930231,424.622665 303.329634,390.415639 C332.477582,357.202343 368.725739,330.943924 409.399818,313.577652 C454.672889,294.579197 503.409297,285.181563 552.515408,285.981281 C582.748051,285.894643 612.939944,288.201577 642.806992,292.880374 C675.265148,298.651109 706.921168,308.25075 737.10919,321.477377 C735.822107,348.364127 730.832362,374.946067 722.280473,400.474622 C715.174163,422.782782 706.352746,444.510139 695.894855,465.463022 C682.737227,460.863627 670.722976,456.93132 659.852101,453.6661 C648.981227,450.400881 638.620474,447.767639 628.769844,445.766376 C618.884032,443.800222 609.015811,442.308052 599.165181,441.289865 C589.31455,440.271679 578.760303,439.78014 567.502439,439.81525 C514.203491,439.81525 473.077108,457.703737 444.12329,493.480712 C415.169473,529.257687 400.692564,582.624714 400.692564,653.581796 C400.692564,723.801569 414.764893,776.167965 442.909552,810.680984 C471.054211,845.194002 513.165657,862.432957 569.24389,862.397847 C580.500952,862.508352 591.741889,861.52058 602.806396,859.448616 L604.336762,859.027298 C618.321139,855.972738 629.561412,853.339496 641.276626,850.021612 L674.944675,744.165303 L552.515408,744.165303 C550.43974,730.121349 548.874193,717.569564 547.818768,706.50995 C546.763344,695.450335 546.235631,685.268468 546.235631,675.964348 C546.235631,667.081547 546.763344,656.373032 547.818768,643.838802 C548.874193,631.304572 550.43974,619.016112 552.515408,606.973421 L833.891636,606.973421 C833.891636,606.973421 808.350358,602.128257 778.481839,597.177762 C748.61332,592.227268 724.866264,588.75139 724.866264,588.75139 L818.271351,293.828341 C835.369231,291.897297 891.395217,286.929248 895.667016,286.929248 C898.514882,286.929248 967.418633,411.870588 1102.37827,661.753268 C1109.11915,693.561862 1103.56447,722.691419 1085.71421,749.14194 Z" id="Path" fill="#7A26C4" opacity="0.0530809554"></path>
                <path d="M704.778525,202.705098 L1049.43494,453.112642 C1084.48368,478.577043 1099.1495,523.713775 1085.76207,564.916041 L954.115031,970.083959 C940.727604,1011.28622 902.332006,1039.18226 859.00938,1039.18226 L432.99062,1039.18226 C389.667994,1039.18226 351.272396,1011.28622 337.884969,970.083959 L206.237932,564.916041 C192.850504,523.713775 207.516318,478.577043 242.565058,453.112642 L587.221475,202.705098 C622.270216,177.240698 669.729784,177.240698 704.778525,202.705098 Z" id="Polygon" fill="url(#linearGradient-1)" style="mix-blend-mode: color-burn;" opacity="0.520717076" transform="translate(646.000000, 646.000000) rotate(25.000000) translate(-646.000000, -646.000000) "></path>
            </g>
        </g>
    </g>
</svg>